<svg width="92" height="27" viewBox="0 0 92 27" fill="none" xmlns="http://www.w3.org/2000/svg">
<path d="M0.712891 14.1044V10.3544L15.7129 3.74929V8.06392L5.443 12.1868L5.5815 11.9631V12.4957L5.443 12.272L15.7129 16.3949V20.7095L0.712891 14.1044ZM28.4403 1.18182H33V16.3949C33 17.8011 32.6839 19.0227 32.0518 20.0597C31.4268 21.0966 30.5568 21.8956 29.4417 22.4567C28.3267 23.0178 27.0305 23.2983 25.5532 23.2983C24.2393 23.2983 23.0461 23.0675 21.9737 22.6058C20.9083 22.1371 20.0632 21.4268 19.4382 20.4751C18.8132 19.5163 18.5042 18.3125 18.5113 16.8636H23.1029C23.1172 17.4389 23.2343 17.9325 23.4545 18.3445C23.6818 18.7493 23.9907 19.0618 24.3814 19.282C24.7791 19.495 25.2478 19.6016 25.7876 19.6016C26.3558 19.6016 26.8352 19.4808 27.2258 19.2393C27.6235 18.9908 27.9254 18.6286 28.1314 18.1527C28.3373 17.6768 28.4403 17.0909 28.4403 16.3949V1.18182ZM40.1556 1.18182L45.4291 17.7585H45.6315L50.9156 1.18182H56.0292L48.5079 23H42.5633L35.0314 1.18182H40.1556ZM73.8163 0.159089L66.785 26.2812H62.8752L69.9065 0.159089H73.8163ZM91.2871 16.1499L76.2871 22.755V18.4403L86.557 14.3175L86.4185 14.5412V14.0085L86.557 14.2322L76.2871 10.1094V5.79474L91.2871 12.3999V16.1499Z" fill="#111827"/>
</svg>
